<svg preserveAspectRatio="xMidYMid meet" data-bbox="133.7 282.699 599.52 182.301" viewBox="133.7 282.699 599.52 182.301" xmlns="http://www.w3.org/2000/svg" data-type="color" role="presentation" aria-hidden="true" aria-labelledby="svgcid-m1uh6gesfmis"><defs><style>#comp-k84gr87t svg [data-color="1"] {fill: #364037;}</style></defs><title id="svgcid-m1uh6gesfmis"/>
    <g>
        <path d="M133.7 436.2V350h15.4c8.4 0 15 1.9 19.6 5.7 4.6 3.8 7 9.2 7 16.2 0 9.7-4.3 16.3-13 19.7 6.6.8 11.7 3.2 15.3 7 3.6 3.8 5.4 8.9 5.4 15.1.1 4.3-1 8.5-3.2 12.2-2.2 3.4-5.4 6.2-9.1 7.8-4.5 1.9-9.4 2.8-14.3 2.7l-23.1-.2zm4-45.8h11.1c7.4 0 13.1-1.6 17.1-4.8s6-7.8 6-13.6c0-6-2-10.6-6-13.8s-9.7-4.8-17-4.8h-11.2v37zm0 42.3h18.5c7.3 0 13-1.7 17.1-5 4.1-3.3 6.1-8 6.1-14.1s-2-10.9-6.1-14.3-9.8-5.1-17.1-5.1h-18.4l-.1 38.5z" fill="#1d1d1b" data-color="1"/>
        <path d="M223.1 437.9c-5.1.1-10.2-1.2-14.7-3.6-4.3-2.3-7.9-5.8-10.4-10-5.1-9.2-5.1-20.4 0-29.6 2.5-4.2 6.1-7.7 10.4-10 9.2-4.8 20.2-4.8 29.4 0 4.3 2.3 7.9 5.8 10.4 10 5.1 9.2 5.1 20.4 0 29.6-2.5 4.2-6.1 7.7-10.4 10-4.5 2.4-9.6 3.7-14.7 3.6zm0-3.8c4.5.1 8.9-1 12.8-3.1 3.7-2.1 6.7-5.1 8.8-8.8 4.3-7.9 4.3-17.5 0-25.5-2.1-3.7-5.1-6.7-8.8-8.8-8-4.3-17.6-4.3-25.6 0-3.7 2.1-6.7 5.1-8.8 8.8-4.3 8-4.3 17.5 0 25.5 2.1 3.7 5.2 6.7 8.8 8.8 3.9 2.1 8.3 3.2 12.8 3.1z" fill="#1d1d1b" data-color="1"/>
        <path d="M268.9 436.2v-53.5h4v7.9c1.4-2.8 3.6-5.2 6.4-6.7 3.1-1.9 6.9-2.9 11.7-2.9 3.7-.1 7.4.8 10.6 2.5 3 1.7 5.3 4.3 6.7 7.4 1.6 3.8 2.4 7.9 2.3 12v33.2h-4v-32.6c0-6.2-1.4-11-4.3-14.2-2.8-3.2-6.9-4.9-12.1-4.9-3.3-.1-6.5.7-9.4 2.2-2.5 1.3-4.5 3.3-5.9 5.7-1.3 2.3-2 4.9-2 7.6v36.3h-4z" fill="#1d1d1b" data-color="1"/>
        <path d="M352.5 436.2L316.3 350h25.9l19.2 51.7 19.2-51.7h25.9l-36.2 86.3-17.8-.1z" fill="#1d1d1b" data-color="1"/>
        <path d="M429.7 437.9c-5.7.1-11.4-1.2-16.6-3.6-4.7-2.2-8.8-5.7-11.7-10-5.8-9-5.8-20.5 0-29.5 2.9-4.3 7-7.8 11.7-10 10.5-4.8 22.7-4.8 33.2 0 4.7 2.2 8.8 5.7 11.7 10 5.7 9 5.7 20.5 0 29.5-3 4.3-7 7.8-11.7 10-5.2 2.5-10.9 3.7-16.6 3.6zm0-18.4c1.7 0 3.4-.4 4.9-1.3 1.5-.8 2.7-2.1 3.6-3.5.9-1.6 1.4-3.4 1.3-5.2 0-1.8-.4-3.7-1.3-5.2s-2.1-2.7-3.6-3.5c-3.1-1.7-6.8-1.7-9.8 0-1.5.8-2.7 2-3.6 3.5-.9 1.6-1.4 3.4-1.3 5.2 0 1.8.4 3.6 1.3 5.2 1.8 3 5 4.8 8.5 4.8z" fill="#1d1d1b" data-color="1"/>
        <path d="M463.4 463.4l20.1-37.5-25.5-43.2h25l13.2 22.6 10.9-22.6h25l-43.7 80.7h-25z" fill="#1d1d1b" data-color="1"/>
        <path d="M555.2 437.9c-4.7 0-9.3-1.2-13.3-3.7s-7.3-6-9.6-10.1c-4.7-9.1-4.7-19.9-.2-29.1 2.1-4.2 5.4-7.7 9.3-10.2 4.1-2.6 8.9-3.9 13.8-3.8 3 0 6 .4 8.9 1.3 2.7.8 5.2 2.1 7.5 3.8v-3.5h21.8v53.5h-21.8V432c-2.4 1.9-5 3.4-7.9 4.4-2.8 1-5.7 1.5-8.5 1.5zm6.6-18.4c1.8 0 3.6-.4 5.2-1.3 1.5-.8 2.7-2.1 3.5-3.6.9-1.6 1.3-3.4 1.3-5.1 0-1.8-.4-3.6-1.3-5.2-.8-1.5-2.1-2.7-3.5-3.6-1.6-.9-3.4-1.3-5.2-1.3-1.8 0-3.6.4-5.2 1.3-1.5.8-2.8 2.1-3.6 3.6-.9 1.6-1.4 3.3-1.3 5.1 0 1.8.4 3.6 1.3 5.1.9 1.5 2.1 2.7 3.6 3.6 1.6 1 3.4 1.4 5.2 1.4z" fill="#1d1d1b" data-color="1"/>
        <path d="M633.8 465c-7.5 0-13.8-1.3-18.9-4-4.9-2.5-8.8-6.6-10.9-11.6l17.6-8.7c1.4 1.7 3.2 3.1 5.3 4 2.1 1 4.5 1.5 6.8 1.5 2.1.1 4.2-.4 6-1.4 3.3-1.8 5.3-5.2 5.2-8.9v-3.8c-2.4 1.9-5.1 3.3-7.9 4.3-2.8 1-5.7 1.5-8.7 1.5-4.6 0-9.1-1.2-13.1-3.6-4-2.4-7.3-5.9-9.5-10-2.5-4.5-3.7-9.6-3.6-14.8-.1-5.1 1.1-10.1 3.4-14.5 2.2-4.2 5.5-7.7 9.5-10.2 4.2-2.6 9-3.9 13.9-3.8 3 0 5.9.4 8.7 1.3 2.6.8 5.1 2.1 7.3 3.8v-3.5h21.8v55c0 4.7-1.1 9.3-3.3 13.4-2.4 4.3-6.1 7.8-10.6 10-4.9 2.7-11.2 4-19 4zm1.3-45.5c1.8 0 3.7-.4 5.3-1.3 1.5-.8 2.7-2.1 3.6-3.6.9-1.5 1.3-3.3 1.3-5.1 0-1.8-.4-3.6-1.3-5.2-2.9-4.7-9.1-6.3-13.9-3.6-1.5.9-2.7 2.1-3.6 3.6-1.8 3.2-1.8 7.1-.1 10.3.8 1.5 2 2.7 3.5 3.5 1.6 1 3.4 1.4 5.2 1.4z" fill="#1d1d1b" data-color="1"/>
        <path d="M705.6 437.9c-5.6.1-11.1-1.2-16-3.8-4.6-2.4-8.4-5.9-11.2-10.2-4.8-7.8-5.5-17.4-1.8-25.7 1.6-3.4 3.8-6.5 6.5-9 2.9-2.6 6.2-4.6 9.8-6 3.9-1.5 8.1-2.2 12.2-2.2 5.1-.1 10.2 1.1 14.7 3.5 4.1 2.2 7.5 5.6 9.9 9.7 2.4 4.4 3.7 9.4 3.5 14.4v1.3c0 .4-.1 1.3-.2 2.6h-36.3c0 1.6.4 3.1 1.2 4.4.8 1.3 2.1 2.3 3.5 2.9 1.7.7 3.6 1 5.4 1 1.7 0 3.4-.3 5-1 1.8-1 3.5-2.3 4.9-3.8l15.6 7.7c-2.6 4.5-6.3 8.1-10.9 10.4-4.8 2.6-10.3 3.9-15.8 3.8zm-8.2-35.7H712c-.1-1.3-.6-2.5-1.2-3.5-.6-.9-1.5-1.6-2.5-2.1-1.2-.5-2.4-.7-3.7-.7-1.3 0-2.7.2-3.9.7-1 .4-1.9 1.2-2.4 2.1-.6 1.2-.9 2.4-.9 3.5z" fill="#1d1d1b" data-color="1"/>
        <path d="M545.9 312.7c-4.7-10.3-15-17-26.3-17h-.4c-13.5-15.7-37.2-17.4-52.9-3.9-6.2 5.3-10.4 12.6-12.1 20.5-11.6.7-20.4 10.6-19.7 22.2.5 8.7 6.3 16.1 14.5 18.8h99.9c11-3.6 17-15.5 13.4-26.5-2.5-7.3-8.8-12.8-16.4-14.1z" fill="#1d1d1b" data-color="1"/>
    </g>
</svg>