<svg preserveAspectRatio="xMidYMid meet" data-bbox="151 306.23 544.727 139.163" viewBox="151 306.23 544.727 139.163" xmlns="http://www.w3.org/2000/svg" data-type="color" role="presentation" aria-hidden="true" aria-labelledby="svgcid-vu2ul2-u5dxme"><defs><style>#comp-k84grwz6 svg [data-color="1"] {fill: #364037;}</style></defs><title id="svgcid-vu2ul2-u5dxme"/>
    <g>
        <path d="M203 442.07l-30.68-48.42-14.83 9.4L151 392.9l41.18-26.08 6.43 10.18-14.86 9.42 30.67 48.41z" fill="#1d1d1b" data-color="1"/>
        <path d="M235.18 422.33l-29.09-62.93 21.44-9.91a28.41 28.41 0 0112.24-2.91 18.89 18.89 0 0110.37 3.12 21.15 21.15 0 017.35 9 22.92 22.92 0 012.27 9.3 19 19 0 01-1.86 8.61 22.43 22.43 0 01-5.81 7.36l32.22 15.61-15.68 7.25-29.12-15.33-2.93 1.36 11 23.72zm-3.36-39.73l5.26-2.44a18.66 18.66 0 006-4.12 9.7 9.7 0 002.59-5.16 10 10 0 00-1-5.82 9.23 9.23 0 00-6.39-5.58q-4.29-1-10.05 1.65l-5.23 2.44z" fill="#1d1d1b" data-color="1"/>
        <path d="M280.29 400.93l7.65-74.32 12.16-3.5 45.85 59-14.09 4.05-10-13.57-26.17 7.51-1.3 16.81zm16.58-33.61l17.24-4.95-15.05-19.86z" fill="#1d1d1b" data-color="1"/>
        <path d="M364.64 380.28l-38.15-64.79 15.24-2.07 25.44 45.87 12.32-51 15.2-2.06-19.48 72.61z" fill="#1d1d1b" data-color="1"/>
        <path d="M409.83 375.6l1.17-69.32 13.61.23-.94 57.38 25 .41-.19 11.94z" fill="#1d1d1b" data-color="1"/>
        <path d="M455.66 377l6.35-69 13.56 1.25-6.35 69z" fill="#1d1d1b" data-color="1"/>
        <path d="M483.79 379.09l14.79-67.74 13.3 2.91 19.23 51.95 10-45.57 13.3 2.9-14.8 67.74-13.3-2.91L507 336.43l-10 45.56z" fill="#1d1d1b" data-color="1"/>
        <path d="M578.94 407.66a32.51 32.51 0 01-11.28-7.58 33.12 33.12 0 01-7.1-11.16 35.75 35.75 0 01-2.34-13.33 37.94 37.94 0 013-14.13 38.86 38.86 0 017.49-11.84 34.76 34.76 0 0110.84-7.95 32.48 32.48 0 0113.19-3 35.8 35.8 0 0114.49 2.88 42.38 42.38 0 018.07 4.41 42.86 42.86 0 017.06 6.09 34.93 34.93 0 015.27 7.32l-9.91 7.33a25.76 25.76 0 00-6.18-8.24 30.09 30.09 0 00-8.76-5.61 20.66 20.66 0 00-8.78-1.75 17.84 17.84 0 00-7.78 2.09 21.83 21.83 0 00-6.46 5.33 32.31 32.31 0 00-7.06 17.65 23 23 0 001 8.64 18.77 18.77 0 004 7 18.15 18.15 0 006.6 4.57 19.55 19.55 0 006.42 1.43 18.27 18.27 0 006.34-.78 15.39 15.39 0 005.38-2.93 12.67 12.67 0 003.59-5l.4-1-16.83-6.91 4-9.76 29.66 12.18-4 9.72a25.4 25.4 0 01-6.82 9.71 28.14 28.14 0 01-10.06 5.63 33.84 33.84 0 01-11.72 1.56 34.63 34.63 0 01-11.72-2.57z" fill="#1d1d1b" data-color="1"/>
        <path d="M641.09 440a34 34 0 01-10-9.65 34.89 34.89 0 01-5.26-12.49 36.73 36.73 0 0127.37-43 34.43 34.43 0 0113.53-.53 34.66 34.66 0 0123 14.62 34.67 34.67 0 015.27 12.49 36.76 36.76 0 01-27.37 43 34.62 34.62 0 01-13.53.52 33.65 33.65 0 01-13.01-4.96zm7-11.09a19.39 19.39 0 007.78 3 19 19 0 008-.55 22.06 22.06 0 007.47-3.84 28.53 28.53 0 009.84-15.52 22.11 22.11 0 00.31-8.39 20 20 0 00-16.57-16.18 18.93 18.93 0 00-8 .54 21.78 21.78 0 00-7.46 3.85 28.93 28.93 0 00-9.86 15.49 21.87 21.87 0 00-.33 8.38 19.08 19.08 0 002.9 7.47 19.29 19.29 0 005.93 5.75z" fill="#1d1d1b" data-color="1"/>
    </g>
</svg>