<svg preserveAspectRatio="xMidYMid meet" data-bbox="98.85 254.04 617.49 291.965" viewBox="98.85 254.04 617.49 291.965" xmlns="http://www.w3.org/2000/svg" data-type="color" role="presentation" aria-hidden="true" aria-labelledby="svgcid-yzf0i2-435v4h"><defs><style>#comp-k84gqbak svg [data-color="1"] {fill: #364037;}</style></defs><title id="svgcid-yzf0i2-435v4h"/>
    <g>
        <path d="M150.25 411.24q-22.2 0-22.19 42.8v11.31q0 20.34 5.87 31.86t17.32 11.53q15.75 0 28.92-30.64h2.58l-1 31.92h-1.58a8.51 8.51 0 00-1.57-2.22 3 3 0 00-2.08-.64c-.91 0-4.36.74-10.38 2.22a76.36 76.36 0 01-18.32 2.22q-23.34 0-36.15-12.6t-12.82-37.87q0-25.26 13.39-39t36-13.75a66.42 66.42 0 0117.1 2.22q8.39 2.22 9.81 2.22a3.12 3.12 0 002.15-.65 8.43 8.43 0 001.57-2.21h1.58l1.16 31.04H179q-6.45-14.47-13.25-22.13t-15.5-7.63z" fill="#1d1d1b" data-color="1"/>
        <path d="M202.08 502.43q-9.17-9.15-9.17-26.27t9.81-26.34q9.81-9.24 27.56-9.23t26.49 8.51q8.73 8.52 8.73 26 0 36.51-36.36 36.51-17.91-.01-27.06-9.18zM238 482v-12.21q0-13.89-1.5-20.26t-6.95-6.37a7.21 7.21 0 00-5.08 1.79c-1.29 1.19-2.22 3.18-2.79 5.94q-1.29 6.45-1.29 19.62v11.17q0 15.6.93 18.75a32 32 0 001.94 5.16c1 2.28 3.1 3.43 6.15 3.43q5.58 0 7.3-6.44Q238 498 238 482z" fill="#1d1d1b" data-color="1"/>
        <path d="M269.51 442H304v13.18q4.73-14.61 20.84-14.6t19.54 15.46q5-15.46 21-15.46 21.06 0 21.05 23.9v43.1h8v2.57h-39.59v-2.57h5v-46.52q0-10.89-1.86-12.74a3.07 3.07 0 00-2.29-.86q-4.15 0-7.3 5.58t-3.15 14.18v40.37h5.15v2.57h-36.78v-2.57h5v-46.53c0-7.26-.63-11.5-1.86-12.74a3.09 3.09 0 00-2.3-.86q-4 0-7.22 6.08a30.65 30.65 0 00-3.23 14.53v39.52h5.16v2.57h-39.65v-2.57h7.87v-63h-7.87z" fill="#1d1d1b" data-color="1"/>
        <path d="M430.86 442v11.31q5.58-12.74 19.76-12.73 12.31 0 19.11 8.87t6.8 26.92q0 18-7.37 26.63T447 511.6q-6.87 0-10.31-1.72a13.53 13.53 0 01-5.59-5.3v37.08h18.48v2.58h-53v-2.58h7.88v-97.07h-7.59V442zm16.61 9.81c-1-3.38-2.82-5.08-5.59-5.08s-5.25 1.79-7.44 5.37-3.3 8.37-3.3 14.39v26.2a20.92 20.92 0 002.44 10.45 7.77 7.77 0 007.16 4.29q4.72 0 6.44-6.29t1.72-22v-7.45q0-14.78-1.43-19.87z" fill="#1d1d1b" data-color="1"/>
        <path d="M515.19 476.52h4.15v-11q0-13.61-1.5-18.26t-5.8-4.65a8.26 8.26 0 00-4.65 1.36 4.23 4.23 0 00-2.08 3.72 14.45 14.45 0 00.86 4.8h3.58a20.39 20.39 0 011.14 7.23 9.34 9.34 0 01-3.58 7.3 13.34 13.34 0 01-9 3.08q-12.32 0-12.31-11.89 0-17.61 29.92-17.6 17 0 23.56 5.79t6.52 21.25v29.06q0 7.44 4.15 7.44 4.88 0 5.73-14.74l2.15.14q-.59 12.6-4.73 17.32t-13.6 4.73q-17.17 0-19.76-10.6a15.42 15.42 0 01-5.58 8q-3.72 2.58-10.88 2.58-21.19 0-21.19-17.32 0-10.17 8.09-14t24.81-3.74zm-4.94 27.2a3 3 0 003 2.15c1.47 0 2.86-1.22 4.15-3.65s1.93-5.8 1.93-10.09v-13.32h-1q-8.88 0-8.88 13v2.29q.01 7.47.8 9.62z" fill="#1d1d1b" data-color="1"/>
        <path d="M559.71 442h34.51v13.18a23.79 23.79 0 017-10.6q4.72-4 14.32-4 22.19 0 22.19 23.9v43.1h8v2.57h-40.49v-2.57h5.87v-46.52q0-8.6-1.14-11.1a4.18 4.18 0 00-4.16-2.5q-4.57 0-8.09 6a28.51 28.51 0 00-3.5 14.6v39.52h6.15v2.57h-40.66v-2.57h7.88v-63h-7.88z" fill="#1d1d1b" data-color="1"/>
        <path d="M639.75 444.59V442h41.51v2.58h-7.73l15.61 47.54 16.61-47.54h-9.6V442h20.19v2.58h-7.16l-26.77 77.17q-4.73 13.46-10.59 18.83A20.46 20.46 0 01657.5 546c-5.64 0-10.07-1.29-13.32-3.87a12.07 12.07 0 01-4.86-9.88q0-6 3.14-9.16a11.23 11.23 0 018.31-3.15q11.88 0 11.88 9.88a19 19 0 01-.86 5.16h-5a7.74 7.74 0 00-.28 5.43c.57 1.44 1.86 2.15 3.86 2.15q5.86 0 10.45-5.8t8.73-17.76l3.15-8.88h-12.6l-24.48-65.57z" fill="#1d1d1b" data-color="1"/>
        <path d="M206.9 300.85h42.81q19.89 0 29.85 5.37t9.95 18.11q0 19.62-23.62 23.48v.28q28.64 3.59 28.63 24.92 0 15.6-11.74 21.83T249 401.07h-42.1v-2.73h9.31v-94.77h-9.31zm37.23 2.72v44.09h3.72q7.44 0 10.38-4.51t2.93-13.81v-6.73q0-10.59-2.58-14.82c-1.71-2.81-5-4.22-9.87-4.22zm0 46.81v48h6.72q7.88 0 11-5.44t3.15-16v-7.59q0-9.45-3.87-14.17t-13.74-4.73z" fill="#1d1d1b" data-color="1"/>
        <path d="M309.62 393q-9.22-9.53-9.23-26.49t10.38-26q10.38-9 26.41-9 32.51 0 31.22 32.64H328v5.58q0 14 3.58 21.19t12.46 7.16q16.6 0 21.76-17.75l2.58.43q-2.73 10.31-9.81 16t-21.26 5.73q-18.46.01-27.69-9.49zm18.54-31.72h14.75v-7q0-11.6-1.36-15.82c-.91-2.81-2.72-4.23-5.44-4.23s-4.73 1.51-6 4.52-1.94 8.18-1.94 15.53z" fill="#1d1d1b" data-color="1"/>
        <path d="M422.22 401.07l-1.57-10q-4.86 11.46-19.76 11.46-12.31 0-19.11-8.88T375 367.13q0-35.64 28.35-35.64 12.6 0 16.6 7v-42.22h-8.75v-2.58H447v104.8h7v2.58zm-18-9.67c1 3.29 3 4.94 5.79 4.94a9.24 9.24 0 007.31-3.72q3.07-3.72 3.07-11v-31.24a21 21 0 00-2.43-10.45 7.77 7.77 0 00-7.16-4.29q-4.72 0-6.44 6.3T402.61 364v7.44q0 15.02 1.58 19.96z" fill="#1d1d1b" data-color="1"/>
        <path d="M555.7 416.23q8.85 0 13.65-8.13t4.8-20.08q0-11.94-9.59-24.23-13.75 15-37.8 15T488.5 371q-14.21-7.79-14.2-24.57 0-11.6 6.51-18.7t21.89-10.33q-15.92-13.84-15.92-30.21t12-24.75q12-8.4 29.94-8.4t26.86 6.24q9 6.23 8.95 16.79 0 18.35-29.12 28 3.62 2.25 13.2 8 20.08 12.46 28.4 20.08a135 135 0 003.08-25.27h-14.26v-3.47h31.47v3.47h-12.66a140.92 140.92 0 01-3.44 29.25 74 74 0 0111.8 15.92q4 7.62 4 19.22 0 18.69-13.75 33.4t-31.35 14.72q-11.76 0-18.27-4.68t-6.51-11.94q0-7.27 4.25-11.34a14.94 14.94 0 0110.76-4.07q14.48 0 14.47 12.47a22.5 22.5 0 01-1.08 6.23h-6.33q-3.27 9.17 6.51 9.17zm-24.6-41.89q19.17 0 30.39-14.19-8.32-8.31-23.34-18-25.86-16.27-32.92-22.15-2.72 5.55-2.71 22.5t7.05 24.41q7.05 7.43 21.53 7.43zm-15-112.59q-4.87 4.06-4.88 12.89t4.34 14.54q4.34 5.71 16.64 13.85 7.61-3.81 9.5-9.17t1.9-15.76q0-20.42-15.74-20.42a17.8 17.8 0 00-11.78 4.07z" fill="#1d1d1b" data-color="1"/>
    </g>
</svg>