<svg preserveAspectRatio="xMidYMid meet" data-bbox="62.825 299.8 653.275 157.2" viewBox="62.825 299.8 653.275 157.2" xmlns="http://www.w3.org/2000/svg" data-type="color" role="presentation" aria-hidden="true" aria-labelledby="svgcid--4s81405ifwkn"><defs><style>#comp-k84gsizp svg [data-color="1"] {fill: #364037;}</style></defs><title id="svgcid--4s81405ifwkn"/>
    <g>
        <path d="M107 411.2c-2.8 1-5.8 1.6-8.8 1.6-8.3.1-15.9-4.6-19.6-12 4-1.5 8.2-3.2 12.8-5 4.6-1.8 9.2-3.7 13.8-5.5 4.6-1.9 9.1-3.7 13.3-5.4s8.1-3.2 11.4-4.3c-2.2-7-6.4-13.3-12.1-17.9-5.6-4.5-12.6-7-19.8-6.8-4.7 0-9.3.9-13.6 2.8-8.4 3.7-15.2 10.4-18.8 18.9-3.7 8.7-3.7 18.6 0 27.3 1.8 4.2 4.4 7.9 7.6 11.1 3.3 3.2 7.1 5.8 11.3 7.6 4.4 1.9 9.1 2.8 13.9 2.8 4.8 0 9.6-.9 14.1-2.6 4.3-1.5 8.3-3.9 11.7-6.9l-10.3-10c-1.8 1.9-4.2 3.3-6.9 4.3zm-30.4-19.6c-.1-.4-.1-.7-.1-1.1 0-2.7.6-5.4 1.7-7.9s2.6-4.8 4.6-6.8c2-2 4.3-3.6 6.8-4.7 2.7-1.2 5.6-1.8 8.6-1.8s5.9.7 8.5 2c2.7 1.2 4.8 3.3 6.1 6-2.4 1-5 2.1-8 3.3l-9.3 3.9c-3.2 1.3-6.5 2.7-9.7 4-3.3 1.3-6.3 2.5-9.1 3.6 0-.2-.1-.4-.1-.5z" fill="#1d1d1b" data-color="1"/>
        <path d="M182.6 407.2c-2.2-3.1-4.5-6.1-6.7-9.1s-4.3-5.8-6.2-8.4c2-3.2 4-6.1 5.9-8.8 1.9-2.6 3.8-5.2 5.6-7.7 1.8-2.5 3.6-5 5.5-7.6s3.7-5.3 5.6-8.3H177c-2.8 4.1-5.3 7.6-7.7 10.7-2.4 3-4.9 6.6-7.6 10.5-1.4-2-2.7-3.9-3.9-5.5s-2.5-3.3-3.7-4.9-2.5-3.3-3.7-5-2.5-3.6-3.8-5.8h-16.9c3.6 5.3 7.5 10.5 11.5 15.7s7.9 10.5 11.6 15.9c-4 5.9-8 11.8-12.2 17.6-4.2 5.8-8.3 11.8-12.4 17.9h15.3c2.8-4.2 5.5-8 8.2-11.6s5.4-7.3 8.2-11.4c3 4.1 5.9 7.9 8.8 11.4 2.9 3.5 5.8 7.4 8.8 11.6H195c-1.8-2.6-3.8-5.4-5.9-8.4s-4.3-5.7-6.5-8.8z" fill="#1d1d1b" data-color="1"/>
        <path fill="#1d1d1b" d="M294.9 299.8v124.8h-13.7V299.8h13.7z" data-color="1"/>
        <path d="M417.3 357.1c-2.6 1-5.2 2.3-7.5 3.8-2.7 1.7-5.1 3.7-7.2 6-2.2 2.3-4.1 5-5.5 7.9l-.6-8.1c-.2-2.7-.4-5.8-.6-9.1h-12v67.2h13.7v-32.1c-.1-2.9.6-5.7 1.9-8.3 1.3-2.4 3-4.4 5.2-6 2.3-1.6 4.8-2.9 7.5-3.6 2.8-.8 5.8-1.2 8.7-1.2l3-17.7c-2.3-.1-4.5.4-6.6 1.2z" fill="#1d1d1b" data-color="1"/>
        <path d="M480.1 367c-.6-1.2-1.4-2.4-2.4-3.4-1.4-1.4-2.9-2.7-4.7-3.7-2.2-1.3-4.5-2.3-6.9-3-2.9-.8-5.9-1.2-8.8-1.2-4.7 0-9.3 1-13.6 2.9-8.5 3.8-15.2 10.7-18.8 19.2-1.9 4.4-2.8 9.1-2.8 13.9 0 4.5.9 9 2.6 13.2 3.5 8.4 10.1 15 18.5 18.6 4.5 1.9 9.3 2.9 14.2 2.8 3 0 6-.3 8.8-1.1 2.3-.6 4.6-1.5 6.7-2.6 1.7-.9 3.2-2 4.6-3.3 1-.9 1.8-1.9 2.6-3v8.5H494v-67.2h-13.2l-.7 9.4zm-1.6 32.5c-1.1 2.6-2.6 4.9-4.6 6.9-2 2-4.4 3.6-7.1 4.6-2.8 1.1-5.9 1.7-8.9 1.7s-6-.5-8.8-1.7c-5.2-2.1-9.4-6.3-11.5-11.5-1.1-2.8-1.7-5.7-1.7-8.7-.1-8.7 5.1-16.7 13.2-20 2.8-1.1 5.8-1.7 8.8-1.7 3.1 0 6.1.5 8.9 1.7 2.6 1.1 5 2.6 7.1 4.6 2 1.9 3.5 4.3 4.6 6.8 2.2 5.7 2.2 11.8 0 17.3z" fill="#1d1d1b" data-color="1"/>
        <path fill="#1d1d1b" d="M526.9 327.9h-13.7v29.8h-12v12.2h12v54.8h13.7v-54.8h18v-12.2h-18v-29.8z" data-color="1"/>
        <path fill="#1d1d1b" d="M564.2 357.5v67.2h-13.7v-67.2h13.7z" data-color="1"/>
        <path d="M634.1 366.1c-3.2-3.2-7.1-5.8-11.2-7.5-9-3.7-19.1-3.7-28.1 0-4.2 1.8-8.1 4.3-11.3 7.5-3.2 3.2-5.8 7-7.6 11.2-1.9 4.3-2.8 9-2.8 13.7-.1 4.9.9 9.8 2.8 14.4 3.5 8.5 10.4 15.1 19 18.4 4.4 1.7 9.1 2.6 13.9 2.6 9.6.1 18.7-3.7 25.5-10.4 3.2-3.2 5.7-7.1 7.4-11.3 3.5-8.8 3.5-18.6 0-27.3-1.9-4.3-4.4-8.1-7.6-11.3zm-5.5 33.4c-1.1 2.6-2.8 4.9-4.8 6.9-4.1 4.1-9.7 6.4-15.5 6.3-2.9 0-5.8-.6-8.4-1.7-5.2-2.2-9.4-6.3-11.6-11.6-1.1-2.7-1.7-5.5-1.7-8.4 0-5.8 2.3-11.4 6.3-15.5 2-2 4.3-3.6 6.9-4.7 2.7-1.1 5.5-1.7 8.4-1.7 5.8 0 11.4 2.3 15.5 6.4 2 2 3.6 4.4 4.8 7 1.2 2.7 1.8 5.6 1.8 8.5.1 3-.5 5.9-1.7 8.5z" fill="#1d1d1b" data-color="1"/>
        <path d="M709.7 361.4c-4.1-3.8-9.5-5.6-16.2-5.6-6.7 0-12.3 1.7-16.8 5.1-4.7 3.6-8.3 8.4-10.5 13.8l-.6-8.1c-.2-2.7-.3-5.8-.6-9.1h-12v67.2h13.7v-33.3c0-3 .5-6 1.7-8.8 2.1-5.2 6.3-9.4 11.5-11.5 2.8-1.2 5.8-1.7 8.8-1.7 4.6.2 8 1.5 10.1 3.9 2.2 2.4 3.4 5.5 3.5 8.8v42.6h13.8v-48.8c0-5.6-2.3-10.8-6.4-14.5z" fill="#1d1d1b" data-color="1"/>
        <path d="M372.4 377.3c-1.7-4.2-4.2-8-7.4-11.2-3.2-3.2-7.1-5.8-11.2-7.5-9-3.7-19.1-3.7-28.1 0-4.2 1.8-8.1 4.3-11.3 7.5-3.2 3.2-5.8 7-7.6 11.2-1.9 4.3-2.8 9-2.8 13.7-.1 4.9.9 9.8 2.8 14.4 3.5 8.5 10.4 15.1 19 18.4 4.4 1.7 9.1 2.6 13.9 2.6 9.6.1 18.7-3.7 25.5-10.4 3.2-3.2 5.7-7.1 7.4-11.3 3.3-8.9 3.3-18.7-.2-27.4z" fill="#1d1d1b" data-color="1"/>
        <path d="M269.4 376.5c-1.5-4.2-3.9-8-7.1-11.2-3.1-3.1-6.8-5.5-10.9-7.1-4.5-1.7-9.3-2.6-14.1-2.5-2.8 0-5.5.3-8.2 1.1-2.3.7-4.6 1.6-6.7 2.8-1.9 1-3.6 2.3-5.1 3.7-1.3 1.2-2.5 2.5-3.4 3.9 0-1.5-.1-3.2-.2-5.1s-.2-3.5-.2-4.7h-13.3V457H214v-37.8c0-.5 0-1.1-.1-1.7-.1-.6-.1-1.1-.1-1.7.9 1.4 2 2.7 3.4 3.8 1.6 1.3 3.4 2.4 5.3 3.4 2.1 1.1 4.4 1.9 6.7 2.4 2.5.6 5.1.9 7.6.9 4.9.1 9.7-.9 14.2-2.7 4.2-1.7 8-4.1 11.2-7.3 3.1-3.2 5.6-6.9 7.2-11.1 1.8-4.5 2.6-9.2 2.6-14 0-5-.9-10-2.6-14.7z" fill="#1d1d1b" data-color="1"/>
    </g>
</svg>